<svg xmlns:dc="http://purl.org/dc/elements/1.1/" xmlns:cc="http://creativecommons.org/ns#" xmlns:rdf="http://www.w3.org/1999/02/22-rdf-syntax-ns#" xmlns:svg="http://www.w3.org/2000/svg" xmlns="http://www.w3.org/2000/svg" xmlns:sodipodi="http://sodipodi.sourceforge.net/DTD/sodipodi-0.dtd" xmlns:inkscape="http://www.inkscape.org/namespaces/inkscape" version="1.1" id="svg2" xml:space="preserve" width="1300" height="1000" viewBox="0 0 1000 1000" sodipodi:docname="smallKomodoImg.svg" inkscape:version="0.92.3 (2405546, 2018-03-11)"><metadata id="metadata8"><rdf:RDF><cc:Work rdf:about=""><dc:format>image/svg+xml</dc:format><dc:type rdf:resource="http://purl.org/dc/dcmitype/StillImage"/><dc:title/></cc:Work></rdf:RDF></metadata><defs id="defs6"><clipPath clipPathUnits="userSpaceOnUse" id="clipPath22"><path d="M 0,640.999 H 1943.086 V 0 H 0 Z" id="path20" inkscape:connector-curvature="0"/></clipPath></defs><sodipodi:namedview pagecolor="#ffffff" bordercolor="#666666" borderopacity="1" objecttolerance="10" gridtolerance="10" guidetolerance="10" inkscape:pageopacity="0" inkscape:pageshadow="2" inkscape:window-width="640" inkscape:window-height="480" id="namedview4" showgrid="false" inkscape:zoom="0.18218405" inkscape:cx="1295.3933" inkscape:cy="427.33267" inkscape:window-x="0" inkscape:window-y="0" inkscape:window-maximized="0" inkscape:current-layer="g10"/><g id="g10" inkscape:groupmode="layer" inkscape:label="Vector Smart Object1" transform="matrix(1.3333333,0,0,-1.3333333,0,854.66533)"><g id="g16"><g id="g18" clip-path="url(#clipPath22)"><g id="g86" transform="translate(611.2617,66.4775)"><path d="M 0,0 -70.688,-6.383 V 38.996 L 0,38.996 Z" style="fill:#4f8e40;fill-opacity:1;fill-rule:nonzero;stroke:none" id="path88" inkscape:connector-curvature="0"/></g><g id="g90" transform="translate(577.9727,150.1543)"><path d="m 0,0 c -10.49,7.71 35.732,-69.457 35.732,-69.457 0,0 11.242,-5.012 21.411,-16.112 35.813,-2.712 59.76,-2.071 96.897,-10.35 73.796,-16.453 103.792,-61.285 113.85,-53.289 5.435,4.317 -33.271,74.341 -110.738,105.911 C 92.139,-16.809 22.736,-16.685 0,0" style="fill:#4f8e40;fill-opacity:1;fill-rule:nonzero;stroke:none" id="path92" inkscape:connector-curvature="0"/></g><g id="g94" transform="translate(674.4463,65.3311)"><path d="m 0,0 c -7.676,9.09 -51.072,25.229 -51.072,25.229 0,0 -14.044,16.961 -19.53,28.768 -3.807,8.194 -7.098,27.225 -13.634,33.468 -11.118,10.62 -40.003,9.255 -53.913,15.811 -0.29,0.136 -0.682,0.208 -1.157,0.232 0.077,0.038 0.155,0.07 0.227,0.1 -40.439,24.131 -83.124,56.532 -112.877,66.236 -40.6,13.232 -168.226,26.532 -168.226,26.532 l -0.606,-231.385 298.172,31.444 c 0,0 19.938,7.152 19.938,20.123 0,10.174 -12.757,20.82 -12.757,20.82 0,0 5.59,-1.174 12.377,-4.871 14.473,-7.886 16.187,-22.535 16.187,-22.535 0,0 0.508,-19.447 2.167,-22.545 1.662,-3.098 3.907,-14.404 8.09,-14.652 6.87,-0.407 12.956,18.134 19.846,18.015 13.409,-0.234 33.651,-23.85 40.275,-20.259 3.146,1.704 -0.625,13.724 -0.625,13.724 l 21.493,-1.604 c 0,0 1.24,10.698 -4.375,17.349" style="fill:#589f44;fill-opacity:1;fill-rule:nonzero;stroke:none" id="path96" inkscape:connector-curvature="0"/></g><g id="g98" transform="translate(410.7876,44.0566)"><path d="m 0,0 c 0,0 -162.001,-32.146 -192.585,-3.992 -25.545,23.515 26.875,129.143 26.875,129.143 H 0 Z" style="fill:#589f44;fill-opacity:1;fill-rule:nonzero;stroke:none" id="path100" inkscape:connector-curvature="0"/></g><g id="g102" transform="translate(498.6328,48.1064)"><path d="m 0,0 c -11.245,11.523 -57.277,29.481 -57.277,29.481 0.07,1.244 0.128,2.033 0.128,2.033 0,0 25.558,62.136 17.17,81.08 -1.417,3.195 -5.258,6.56 -10.154,9.788 -8.093,6.726 -20.272,16.062 -33.972,26.276 0.049,0.234 0.099,0.468 0.15,0.708 h -1.1 c -34.155,25.438 -77.285,56.024 -90.133,65.265 -30.411,21.876 -38.402,53.874 -32.998,88.58 8.371,53.727 84.778,123.605 108.831,166.645 7.162,12.816 19.496,61.076 -37.603,45.105 -125.997,-35.246 -199.594,-140.404 -216.181,-190.639 -17.595,-53.288 -32.469,-160.735 -32.469,-160.735 -6.566,-4.805 -13.07,-9.598 -19.278,-14.221 h -1.1 c 0.051,-0.24 0.101,-0.474 0.15,-0.708 -13.699,-10.214 -25.881,-19.552 -33.974,-26.277 -4.894,-3.228 -8.734,-6.593 -10.151,-9.787 -8.389,-18.944 17.169,-81.08 17.169,-81.08 0,0 0.059,-0.789 0.129,-2.033 0,0 -46.033,-17.958 -57.277,-29.481 -10.328,-10.589 -8.581,-24.743 -8.581,-24.743 l 26.422,5.257 c 0,0 -8.46,-28.381 -2.06,-27.674 15.31,1.666 47.278,33.177 64.346,29.376 9.625,-2.145 16.453,-29.21 26.31,-29.376 5.99,-0.102 10.435,15.806 13.131,20.043 2.196,3.44 -11.141,32.765 -14.428,40.118 0.679,0.189 5.344,32.803 6.158,38.53 3.17,-39.764 58.449,-71.425 126.18,-71.425 2.515,0 5.013,0.045 7.492,0.131 2.478,-0.086 4.976,-0.131 7.491,-0.131 67.731,0 123.01,31.661 126.18,71.425 0.814,-5.727 5.479,-38.341 6.158,-38.53 -3.286,-7.353 -16.624,-36.678 -14.428,-40.118 2.696,-4.237 7.142,-20.145 13.131,-20.043 9.858,0.166 16.685,27.231 26.31,29.376 17.068,3.801 49.036,-27.71 64.347,-29.376 6.399,-0.707 -2.061,27.674 -2.061,27.674 l 26.423,-5.257 c 0,0 1.746,14.154 -8.581,24.743" style="fill:#61af45;fill-opacity:1;fill-rule:nonzero;stroke:none" id="path104" inkscape:connector-curvature="0"/></g><g id="g106" transform="translate(94.7446,187.6729)"><path d="M 0,0 C -0.002,0.01 -0.005,0.021 -0.007,0.032 -0.004,0.019 -0.003,0.012 0,0" style="fill:#6dbe44;fill-opacity:1;fill-rule:nonzero;stroke:none" id="path108" inkscape:connector-curvature="0"/></g><g id="g110" transform="translate(94.3691,189.4062)"><path d="M 0,0 C -0.007,0.035 -0.016,0.072 -0.023,0.108 -0.016,0.072 -0.007,0.035 0,0" style="fill:#6dbe44;fill-opacity:1;fill-rule:nonzero;stroke:none" id="path112" inkscape:connector-curvature="0"/></g><g id="g114" transform="translate(94.6821,187.9609)"><path d="M 0,0 C -0.008,0.037 -0.017,0.077 -0.026,0.119 -0.017,0.074 -0.008,0.039 0,0" style="fill:#6dbe44;fill-opacity:1;fill-rule:nonzero;stroke:none" id="path116" inkscape:connector-curvature="0"/></g><g id="g118" transform="translate(94.7612,187.5957)"><path d="M 0,0 C -0.001,0.005 -0.002,0.01 -0.003,0.016 -0.001,0.007 -0.001,0.006 0,0" style="fill:#6dbe44;fill-opacity:1;fill-rule:nonzero;stroke:none" id="path120" inkscape:connector-curvature="0"/></g><g id="g122" transform="translate(399.3574,565.1592)"><path d="m 0,0 c -1.018,1.069 -4.506,2.254 -4.506,2.254 l -2.423,4.56 c 0,0 -27.768,20.392 -38.554,19.379 -24.652,-2.306 -65.243,-27.477 -95.52,-33.428 -7.683,-1.511 -25.505,3.957 -37.742,-3.63 -20.79,-12.894 -83.114,-74.412 -106.452,-133.859 -16.249,-41.411 -38.249,-113.023 -30.565,-175.305 1.252,-10.132 8.287,-43.921 11.162,-57.519 0,0 79.686,-61.259 58.422,9.861 -0.016,0.052 0.023,-0.107 0.034,-0.161 -6.807,31.591 -15.112,81.392 -2.313,127.717 33.871,122.624 94.842,104.067 129.719,128.716 34.629,24.481 80.48,90.993 108.322,95.221 21.733,3.299 10.336,-31.002 10.336,-31.002 0,0 17.717,28.682 0.08,47.196" style="fill:#6dbe44;fill-opacity:1;fill-rule:nonzero;stroke:none" id="path124" inkscape:connector-curvature="0"/></g><g id="g126" transform="translate(253.6143,537.7803)"><path d="m 0,0 c -14.875,11.357 -24.412,1.605 -29.678,-10.837 6.1,4.751 10.543,1.942 15.046,1.168 C -10.136,-10.438 -9.126,2.242 0,0" style="fill:#231f20;fill-opacity:1;fill-rule:nonzero;stroke:none" id="path128" inkscape:connector-curvature="0"/></g><g id="g130" transform="translate(253.6143,537.7803)"><path d="m 0,0 c -14.875,11.357 -24.412,1.605 -29.678,-10.837 6.1,4.751 10.543,1.942 15.046,1.168 C -10.136,-10.438 -9.126,2.242 0,0" style="fill:#262726;fill-opacity:1;fill-rule:nonzero;stroke:none" id="path132" inkscape:connector-curvature="0"/></g><g id="g134" transform="translate(26.5664,28.0488)"><path d="M 0,0 C 0,0 2.474,8.519 1.123,9.993 -4.387,15.997 -26.455,-4.686 -26.455,-4.686" style="fill:#4f8e40;fill-opacity:1;fill-rule:nonzero;stroke:none" id="path136" inkscape:connector-curvature="0"/></g><g id="g138" transform="translate(480.6865,28.0488)"><path d="M 0,0 C 0,0 -2.474,8.519 -1.123,9.993 4.387,15.997 26.455,-4.686 26.455,-4.686" style="fill:#4f8e40;fill-opacity:1;fill-rule:nonzero;stroke:none" id="path140" inkscape:connector-curvature="0"/></g><g id="g142" transform="translate(657.332,49.5625)"><path d="M 0,0 C 0,0 -1.979,6.816 -0.898,7.996 3.511,12.8 21.489,-1.58 21.489,-1.58" style="fill:#4f8e40;fill-opacity:1;fill-rule:nonzero;stroke:none" id="path144" inkscape:connector-curvature="0"/></g><g id="g146" transform="translate(370.0562,562.667)"><path d="m 0,0 c -27.022,-12.062 -93.882,-82.865 -84.837,-79.614 11.871,4.265 48.627,53.876 83.301,73.45 C 15.715,3.574 24.741,4.002 29.32,2.578 29.32,2.578 22.727,10.145 0,0" style="fill:#262726;fill-opacity:1;fill-rule:nonzero;stroke:none" id="path148" inkscape:connector-curvature="0"/></g><g id="g150" transform="translate(427.0937,576.7656)"><path d="M 0,0 C 17.271,15.843 32.555,58.866 32.555,58.866 L 11.574,41.612 0.293,64.233 c 0,0 3.765,-35.904 -8.654,-56.137 -9.449,-15.398 -30.721,-19.492 -30.721,-19.492 l -0.91,-0.591 C -28.658,-14.067 -9.888,-9.069 0,0" style="fill:#ee4753;fill-opacity:1;fill-rule:nonzero;stroke:none" id="path152" inkscape:connector-curvature="0"/></g></g></g></g></svg>